<svg preserveAspectRatio="none" width="159" height="24" viewBox="0 0 159 24" fill="none" xmlns="http://www.w3.org/2000/svg">
<mask id="mask0_901_530" style="mask-type:luminance" maskUnits="userSpaceOnUse" x="0" y="0" width="159" height="24">
<path d="M159 0H0V23.1631H159V0Z" fill="white"/>
</mask>
<g mask="url(#mask0_901_530)">
<path d="M20.0716 22.6357C19.5884 22.6357 19.125 22.4419 18.7833 22.0968C18.4417 21.7518 18.2497 21.2839 18.2497 20.7959V6.81648L3.1155 22.096C2.77323 22.4417 2.30901 22.6358 1.82497 22.6358C1.34092 22.6358 0.876706 22.4417 0.534435 22.096C0.192164 21.7504 -0.000122064 21.2817 -0.00012207 20.7929C-0.000122076 20.304 0.192164 19.8353 0.534435 19.4897L18.7811 1.06709C19.0357 0.807817 19.361 0.630933 19.7156 0.558956C20.0701 0.48698 20.4378 0.523172 20.7719 0.662924C21.106 0.802672 21.3914 1.03966 21.5917 1.34371C21.7919 1.64776 21.8981 2.00512 21.8966 2.37029V20.7929C21.897 21.035 21.8501 21.2748 21.7585 21.4986C21.6669 21.7224 21.5325 21.9256 21.363 22.0969C21.1934 22.2681 20.9921 22.4038 20.7705 22.4963C20.5489 22.5887 20.3114 22.6361 20.0716 22.6357Z" fill="white"/>
<path d="M131.109 22.6358C130.869 22.6359 130.632 22.5884 130.41 22.4958C130.189 22.4032 129.988 22.2673 129.818 22.0961L119.379 11.554L108.942 22.0961C108.687 22.3554 108.362 22.5322 108.008 22.6042C107.653 22.6762 107.285 22.64 106.951 22.5003C106.617 22.3605 106.332 22.1235 106.131 21.8195C105.931 21.5154 105.825 21.1581 105.826 20.7929V2.37032C105.826 1.88238 106.018 1.41442 106.36 1.06939C106.702 0.724355 107.165 0.53052 107.648 0.53052C108.132 0.53052 108.595 0.724355 108.937 1.06939C109.278 1.41442 109.47 1.88238 109.47 2.37032V16.3467L118.091 7.64749C118.26 7.47642 118.461 7.34074 118.682 7.24813C118.904 7.15556 119.141 7.10791 119.38 7.10791C119.619 7.10791 119.857 7.15556 120.078 7.24813C120.299 7.34074 120.5 7.47642 120.669 7.64749L129.284 16.3467V2.37032C129.284 1.88238 129.476 1.41442 129.817 1.06939C130.159 0.724355 130.623 0.53052 131.106 0.53052C131.589 0.53052 132.052 0.724355 132.394 1.06939C132.736 1.41442 132.928 1.88238 132.928 2.37032V20.7929C132.928 21.1573 132.821 21.5136 132.62 21.8166C132.42 22.1196 132.135 22.3556 131.801 22.4947C131.582 22.5873 131.347 22.6353 131.109 22.6358Z" fill="white"/>
<path d="M157.175 22.6357H138.928C138.445 22.6357 137.981 22.4419 137.64 22.0969C137.298 21.7518 137.106 21.2839 137.106 20.7959C137.106 20.308 137.298 19.84 137.64 19.495C137.981 19.15 138.445 18.9561 138.928 18.9561H152.772L137.637 3.67963C137.382 3.42231 137.207 3.09409 137.137 2.73661C137.066 2.37913 137.102 2.0085 137.241 1.67176C137.379 1.33503 137.613 1.04735 137.913 0.845258C138.214 0.643159 138.567 0.535742 138.928 0.536638H157.175C157.658 0.536638 158.121 0.730473 158.463 1.0755C158.805 1.42053 158.997 1.88849 158.997 2.37644C158.997 2.86439 158.805 3.33234 158.463 3.67737C158.121 4.02242 157.658 4.21624 157.175 4.21624H143.325L158.456 19.4958C158.713 19.753 158.888 20.0815 158.959 20.4395C159.031 20.7975 158.995 21.1688 158.856 21.5062C158.718 21.8436 158.483 22.1317 158.182 22.334C157.881 22.5362 157.527 22.6434 157.166 22.6419L157.175 22.6357Z" fill="white"/>
<path d="M49.2499 19.4927L41.4186 11.5815L49.2499 3.67957C49.5068 3.42242 49.6817 3.09393 49.753 2.73592C49.8244 2.37791 49.7886 2.00658 49.6501 1.6692C49.5116 1.33183 49.2769 1.04368 48.976 0.841431C48.6748 0.639184 48.321 0.531991 47.9593 0.533503H29.7127C29.2295 0.533503 28.7661 0.727338 28.4244 1.07237C28.0827 1.4174 27.8908 1.88536 27.8908 2.37331V20.7959C27.8905 21.1602 27.9973 21.5163 28.1977 21.8192C28.398 22.1221 28.6829 22.3582 29.0163 22.4974C29.3496 22.6367 29.7164 22.6728 30.0701 22.6014C30.4239 22.5299 30.7485 22.354 31.0032 22.096L38.8375 14.1879L46.6688 22.096C47.0107 22.4416 47.4744 22.636 47.9581 22.6363C48.4422 22.6365 48.9061 22.4427 49.2484 22.0975C49.5906 21.7523 49.7831 21.2839 49.7834 20.7954C49.7837 20.3069 49.5918 19.8383 49.2499 19.4927ZM31.5377 4.21311H43.5533L31.5377 16.3466V4.21311Z" fill="white"/>
<path d="M75.3061 19.4927L67.4749 11.5815L75.3061 3.67957C75.563 3.42242 75.7379 3.09393 75.8093 2.73592C75.8806 2.37791 75.8448 2.00658 75.7063 1.6692C75.5679 1.33183 75.3332 1.04368 75.0322 0.841431C74.731 0.639184 74.3772 0.531991 74.0156 0.533503H55.7781C55.2949 0.533503 54.8316 0.727338 54.4896 1.07237C54.148 1.4174 53.9561 1.88536 53.9561 2.37331V20.7959C53.9552 21.1608 54.0618 21.5177 54.2622 21.8213C54.4629 22.1249 54.7484 22.3614 55.0821 22.5008C55.4161 22.6401 55.7835 22.6761 56.1379 22.604C56.4923 22.5319 56.8172 22.3551 57.0716 22.096L64.9059 14.1879L72.7372 22.096C73.0791 22.4416 73.5428 22.6359 74.0265 22.6363C74.5105 22.6365 74.9745 22.4427 75.3168 22.0975C75.659 21.7523 75.8515 21.2839 75.8518 20.7954C75.8521 20.3069 75.6602 19.8383 75.3183 19.4927H75.3061ZM57.603 4.21311H69.6187L57.603 16.3466V4.21311Z" fill="white"/>
<path d="M90.1853 23.1631C87.917 23.1631 85.6994 22.4839 83.8134 21.2113C81.9274 19.9387 80.4574 18.1299 79.5892 16.0137C78.7211 13.8974 78.4939 11.5687 78.9367 9.3221C79.3791 7.07552 80.4713 5.01187 82.0756 3.39217C83.6795 1.77246 85.7231 0.66942 87.9476 0.222542C90.1725 -0.224335 92.4785 0.00501808 94.5743 0.881599C96.6701 1.75818 98.4611 3.24263 99.7216 5.14719C100.982 7.05179 101.654 9.29095 101.654 11.5816C101.651 14.6522 100.442 17.5961 98.2917 19.7674C96.1415 21.9386 93.2261 23.1599 90.1853 23.1631ZM90.1853 3.67961C88.6391 3.68022 87.1275 4.14382 85.8421 5.01178C84.5567 5.87977 83.555 7.11314 82.9634 8.55595C82.3722 9.99878 82.2177 11.5863 82.5198 13.1177C82.8219 14.6492 83.5668 16.0558 84.6606 17.1597C85.754 18.2636 87.1472 19.0154 88.664 19.3198C90.1807 19.6242 91.7527 19.4676 93.1811 18.8699C94.6098 18.2722 95.8308 17.2602 96.6899 15.9618C97.5489 14.6634 98.0074 13.1369 98.0074 11.5754C98.005 9.48155 97.18 7.47417 95.7136 5.99384C94.247 4.51353 92.2589 3.68124 90.1853 3.67961Z" fill="white"/>
</g>
</svg>
