<svg preserveAspectRatio="none" width="14" height="15" viewBox="0 0 14 15" fill="none" xmlns="http://www.w3.org/2000/svg">
<path d="M14.0018 11.0655V13.1776C14.0026 13.3736 13.9624 13.5677 13.8839 13.7474C13.8053 13.927 13.6901 14.0883 13.5456 14.2208C13.4011 14.3534 13.2306 14.4543 13.0448 14.5171C12.8591 14.5799 12.6623 14.6033 12.467 14.5856C10.3006 14.3502 8.2196 13.6099 6.39124 12.4243C4.69019 11.3433 3.248 9.90115 2.16708 8.2001C0.977256 6.36344 0.236806 4.27233 0.00571438 2.09619C-0.0118789 1.9015 0.0112585 1.70528 0.0736533 1.52003C0.136048 1.33477 0.236333 1.16454 0.368124 1.02017C0.499914 0.875794 0.660322 0.760444 0.839135 0.681461C1.01795 0.602478 1.21125 0.561593 1.40673 0.561409H3.51881C3.86048 0.558046 4.19171 0.679036 4.45077 0.901829C4.70983 1.12462 4.87904 1.43401 4.92686 1.77233C5.01601 2.44825 5.18133 3.11191 5.41968 3.75065C5.5144 4.00264 5.53491 4.2765 5.47876 4.53978C5.4226 4.80306 5.29216 5.04473 5.10287 5.23615L4.20876 6.13026C5.21098 7.89283 6.67035 9.3522 8.43292 10.3544L9.32703 9.46031C9.51845 9.27102 9.76012 9.14057 10.0234 9.08442C10.2867 9.02827 10.5605 9.04877 10.8125 9.1435C11.4513 9.38185 12.1149 9.54717 12.7908 9.63632C13.1328 9.68456 13.4452 9.85682 13.6684 10.1203C13.8917 10.3838 14.0103 10.7202 14.0018 11.0655Z" stroke="white" stroke-linecap="round" stroke-linejoin="round"/>
</svg>
